# xmcd
#
# Track frame offsets: 
#        150
#        45550
#        67342
#        86075
#        102452
#        137005
#        158600
#        190182
#        223640
#        262567
#        295722
#
# Disc length: 4244 seconds
#
# Revision: 1
# Processed by: cddbd v1.5.2PL0 Copyright (c) Steve Scherf et al.
# Submitted via: ExactAudioCopyFreeDBPlugin 1.0
#
DISCID=9a10920b
DTITLE=Eric Clapton - Lost Club Shows [CD 6)
DYEAR=2002
DGENRE=Blues
TTITLE0=Early In The Morning
TTITLE1=Let Me Love You Baby
TTITLE2=Someday After A While
TTITLE3=Tore Down
TTITLE4=Have You Ever Loved A Woman
TTITLE5=Crosscut Saw
TTITLE6=Five Long Years
TTITLE7=Crossroads
TTITLE8=Groaning The Blues
TTITLE9=Everyday I Have the Blues
TTITLE10=Ain't Nobody's Business
EXTD=
EXTT0=
EXTT1=
EXTT2=
EXTT3=
EXTT4=
EXTT5=
EXTT6=
EXTT7=
EXTT8=
EXTT9=
EXTT10=
PLAYORDER=
